HIERARCHY
ROOT Hips
{
	OFFSET -3.958830 18.904000 13.208200
	CHANNELS 6 Xposition Yposition Zposition Zrotation Yrotation Xrotation 
	JOINT LHipJoint
	{
		OFFSET 0.000000 0.000000 0.000000
		CHANNELS 3 Zrotation Yrotation Xrotation
		JOINT LeftUpLeg
		{
			OFFSET 1.800000 -1.400000 0.085000
			CHANNELS 3 Zrotation Yrotation Xrotation
			JOINT LeftLeg
			{
				OFFSET 2.215000 -6.000000 0.000000
				CHANNELS 3 Zrotation Yrotation Xrotation
				JOINT LeftFoot
				{
					OFFSET 2.500000 -6.900000 0.000000
					CHANNELS 3 Zrotation Yrotation Xrotation
					JOINT LeftToeBase
					{
						OFFSET 0.200000 -0.500000 1.950000
						CHANNELS 3 Zrotation Yrotation Xrotation
						End Site
						{
							OFFSET 0.000000 0.000000 0.000000
						}
					}
				}
			}
		}
	}
	JOINT RHipJoint
	{
		OFFSET 0.000000 0.000000 0.000000
		CHANNELS 3 Zrotation Yrotation Xrotation
		JOINT RightUpLeg
		{
			OFFSET -1.800000 -1.400000 0.085000
			CHANNELS 3 Zrotation Yrotation Xrotation
			JOINT RightLeg
			{
				OFFSET -2.215000 -6.000000 0.000000
				CHANNELS 3 Zrotation Yrotation Xrotation
				JOINT RightFoot
				{
					OFFSET -2.500000 -6.900000 0.000000
					CHANNELS 3 Zrotation Yrotation Xrotation
					JOINT RightToeBase
					{
						OFFSET -0.200000 -0.500000 1.950000
						CHANNELS 3 Zrotation Yrotation Xrotation
						End Site
						{
							OFFSET 0.000000 0.000000 0.000000
						}
					}
				}
			}
		}
	}
	JOINT LowerBack
	{
		OFFSET 0.000000 0.000000 0.000000
		CHANNELS 3 Zrotation Yrotation Xrotation
		JOINT Spine
		{
			OFFSET -0.087000 1.940000 -0.288900
			CHANNELS 3 Zrotation Yrotation Xrotation
			JOINT Spine1
			{
				OFFSET 0.000000 1.950000 0.060000
				CHANNELS 3 Zrotation Yrotation Xrotation
				JOINT Neck
				{
					OFFSET 0.000000 0.000000 0.000000
					CHANNELS 3 Zrotation Yrotation Xrotation
					JOINT Neck1
					{
						OFFSET 0.000000 1.600000 0.340000
						CHANNELS 3 Zrotation Yrotation Xrotation
						JOINT Head
						{
							OFFSET 0.000000 1.667000 -0.240000
							CHANNELS 3 Zrotation Yrotation Xrotation
							End Site
							{
								OFFSET 0.000000 0.000000 0.000000
							}
						}
					}
				}
				JOINT LeftShoulder
				{
					OFFSET 0.000000 0.000000 0.000000
					CHANNELS 3 Zrotation Yrotation Xrotation
					JOINT LeftArm
					{
						OFFSET 2.700000 1.550000 -0.730000
						CHANNELS 3 Zrotation Yrotation Xrotation
						JOINT LeftForeArm
						{
							OFFSET 5.450000 0.000000 0.000000
							CHANNELS 3 Zrotation Yrotation Xrotation
							JOINT LeftHand
							{
								OFFSET 3.450000 0.000000 0.000000
								CHANNELS 3 Zrotation Yrotation Xrotation
								JOINT LeftHandIndex1
								{
									OFFSET 0.750000 0.000000 0.000000
									CHANNELS 3 Zrotation Yrotation Xrotation
									End Site
									{
										OFFSET 0.000000 0.000000 0.000000
									}
								}
							}
						}
					}
				}
				JOINT RightShoulder
				{
					OFFSET 0.000000 0.000000 0.000000
					CHANNELS 3 Zrotation Yrotation Xrotation
					JOINT RightArm
					{
						OFFSET -2.700000 1.550000 -0.730000
						CHANNELS 3 Zrotation Yrotation Xrotation
						JOINT RightForeArm
						{
							OFFSET -5.450000 0.000000 0.000000
							CHANNELS 3 Zrotation Yrotation Xrotation
							JOINT RightHand
							{
								OFFSET -3.450000 0.000000 0.000000
								CHANNELS 3 Zrotation Yrotation Xrotation
								JOINT RightHandIndex1
								{
									OFFSET -0.750000 0.000000 0.000000
									CHANNELS 3 Zrotation Yrotation Xrotation
									End Site
									{
										OFFSET 0.000000 0.000000 0.000000
									}
								}
							}
						}
					}
				}
			}
		}
	}
}
MOTION
Frames: 14
Frame Time: 0.016667
-0.412860 16.024420 -1.295210 -2.369826 -2.961807 -19.008405 -15.191912 14.026545 3.454097 33.444974 -1.435909 -9.080765 -3.117174 14.677688 44.633578 0.938458 9.833182 1.081999 0.110770 -0.039830 0.091730 18.038549 -11.728497 1.438151 -18.957599 -2.035461 -14.262000 -6.758295 -9.120652 54.832185 -0.966677 -8.318180 1.497878 -0.017890 0.084430 0.038160 -3.167258 -2.415203 -8.210117 10.891541 -3.716941 13.971489 -22.728320 1.713397 7.093016 16.534434 -5.345649 -17.579176 -12.317704 3.424248 36.834799 -2.736980 0.178640 -0.581740 -19.792478 -24.993341 11.084644 -42.458316 -16.196679 2.501720 -11.063888 -18.138094 0.950125 -3.441862 3.179982 0.167320 0.040710 -0.044630 0.083810 -12.692196 35.676247 7.842422 -46.558193 2.632735 -13.601466 -54.551407 5.487659 -3.145911 3.367970 -1.725989 -0.078540 0.070220 -0.024090 -0.072610 
-0.397800 16.015970 -1.275890 -2.581003 -4.546842 -18.322291 -15.199428 14.010565 3.606329 33.981875 -1.594208 -8.869696 -4.545406 15.570688 44.736385 0.985621 10.069530 0.998895 0.107580 -0.052060 0.113360 18.042959 -11.612962 1.419545 -18.472914 -2.107377 -15.093033 -7.101519 -8.924206 54.751070 -0.959977 -8.241184 1.513231 -0.028560 0.061830 0.043090 -3.138878 -2.625517 -8.292052 11.911848 -4.021425 13.913189 -22.901529 0.925989 5.196510 16.536512 -4.671387 -17.307783 -11.290796 3.306614 37.435668 -3.084450 0.805250 -0.820370 -20.503424 -22.948576 10.275502 -41.931888 -13.233435 2.299345 -10.200617 -14.966269 0.681243 -3.474988 3.132092 0.188990 0.031830 -0.028440 0.067480 -12.226031 33.105524 7.787234 -45.777867 0.001990 -11.893948 -53.004184 4.776406 -2.558067 3.350913 -1.706479 -0.080670 0.059300 -0.022100 -0.091090 
-0.374560 16.005430 -1.262150 -2.664447 -5.844629 -16.766591 -15.280307 13.912804 3.843538 34.473205 -1.581267 -10.021067 -6.686771 17.012239 45.168133 1.039541 10.450875 0.866471 0.099470 -0.079230 0.151770 18.017892 -11.297288 1.454530 -18.434571 -1.707673 -17.034063 -6.385408 -9.364354 54.940960 -0.947019 -8.250740 1.492808 -0.041020 0.041750 0.058220 -2.988267 -2.954804 -8.459539 12.447280 -4.141950 13.837178 -21.990608 -0.065891 2.322014 16.230141 -3.513933 -16.515624 -9.076061 2.546602 37.074990 -4.720390 1.972040 -1.172760 -21.633071 -19.719784 8.981694 -40.646512 -8.427025 1.461898 -9.816257 -11.332504 0.378885 -3.545157 3.069532 0.204150 0.043810 -0.022120 0.042690 -10.686189 28.900000 7.536615 -43.736188 -2.755212 -9.667868 -51.572293 4.709650 -2.190946 3.254848 -1.708482 -0.090330 0.040410 -0.018580 -0.123990 
-0.343820 15.989490 -1.254950 -2.832906 -7.393306 -15.087796 -15.341152 13.836299 4.072260 34.793479 -1.328739 -11.326836 -8.599991 18.423620 45.581754 1.129774 10.774511 0.745670 0.080280 -0.109710 0.161280 18.010787 -10.977572 1.515775 -17.956413 -0.952116 -19.067806 -6.327466 -9.261004 55.217126 -0.934846 -8.199443 1.494315 -0.075550 0.011690 0.068550 -2.889125 -3.330773 -8.634682 13.457924 -4.281420 13.864773 -20.444965 -0.977321 -0.772718 15.564070 -2.923866 -15.988472 -8.222906 3.217752 38.190162 -4.768140 3.348630 -0.463720 -21.580752 -16.472742 8.025857 -40.425776 -3.132800 0.384450 -9.846576 -7.839727 0.069417 -3.588631 3.027306 0.224250 0.031840 -0.002800 0.021130 -9.359732 24.821414 7.606563 -40.495675 -6.027144 -7.195387 -50.989221 6.132070 -2.181118 3.174163 -1.719700 -0.081370 0.002490 -0.013830 -0.140820 
-0.318470 15.952410 -1.225350 -3.000587 -8.661825 -13.525384 -15.421283 13.706349 4.270551 35.277944 -0.853610 -12.468429 -10.369693 20.021236 46.228383 1.216781 11.132382 0.616385 0.095510 -0.095720 0.199740 17.997400 -10.644566 1.603148 -18.108819 -0.062365 -20.752137 -5.471649 -9.672059 55.647734 -0.956122 -8.226253 1.470512 -0.079230 -0.037740 0.066440 -2.767143 -3.579945 -8.802335 13.982792 -4.150723 13.901292 -17.779967 -1.575724 -3.537683 14.725321 -2.810498 -14.967702 -7.784025 3.804942 38.449833 -5.147030 4.786790 -1.739500 -21.234630 -12.416408 6.954786 -41.291485 2.578236 -1.578714 -9.055532 -5.936984 -0.267550 -3.617271 2.974487 0.265450 0.000650 0.035290 0.005000 -7.868145 20.258289 7.335441 -36.954013 -8.459191 -4.869010 -51.184645 9.280418 -2.759064 3.045945 -1.713176 -0.078340 -0.011380 -0.026780 -0.165890 
-0.294360 15.912390 -1.199110 -2.928700 -9.190863 -12.381507 -15.453582 13.549154 4.342313 35.043426 -0.547656 -13.937667 -10.928137 21.044944 47.655080 1.294038 11.444676 0.526228 0.085190 -0.115490 0.199310 18.022850 -10.401341 1.712981 -19.310682 0.545008 -21.904293 -3.536319 -10.861832 55.757090 -0.968377 -8.358457 1.417941 -0.095100 -0.033180 0.074630 -2.778162 -3.645562 -8.859658 14.464578 -4.537707 13.739256 -15.672596 -2.238729 -4.378215 13.651596 -3.238659 -14.239643 -8.165762 4.067269 37.127348 -5.376930 5.401760 -2.454600 -20.170897 -9.370615 6.285480 -41.424995 7.329645 -3.329322 -8.498228 -3.842516 -0.579208 -3.678527 2.928331 0.277730 -0.000180 0.037240 0.001060 -6.773385 16.937135 7.268837 -32.519155 -10.253314 -3.989519 -52.710810 11.449624 -3.554284 2.961769 -1.729076 -0.081890 -0.012960 -0.018820 -0.170660 
-0.258660 15.879370 -1.172450 -3.071187 -9.878240 -11.948113 -15.498417 13.533425 4.376485 34.846155 -0.128758 -15.020110 -10.460515 21.771681 49.628380 1.382314 11.725881 0.450403 0.063100 -0.138050 0.168060 18.012454 -10.171011 1.813238 -20.428853 1.190297 -22.287860 -1.616877 -11.944326 55.792955 -0.977511 -8.492944 1.383792 -0.111710 -0.017040 0.056810 -2.713652 -3.885566 -8.939347 14.833250 -4.989945 13.950651 -12.337597 -2.809054 -4.929771 12.568051 -4.307080 -13.992207 -10.184933 5.588156 38.059620 -4.763750 5.828060 -1.358170 -18.846930 -6.612108 5.931645 -42.764224 12.169943 -5.157179 -8.110964 -1.403736 -0.853059 -3.733330 2.871853 0.282330 -0.004490 0.027100 0.006810 -5.771783 14.739768 7.269894 -28.179871 -10.220251 -3.787929 -54.839932 14.866511 -5.143687 2.832474 -1.715232 -0.092050 -0.000830 -0.007550 -0.162850 
-0.211090 15.834960 -1.157570 -3.309748 -10.910651 -11.438544 -15.512416 13.458474 4.326991 34.432268 0.331585 -16.093889 -9.237609 22.272431 52.219722 1.473036 11.999193 0.381510 0.083010 -0.107070 0.172180 18.040148 -9.960099 1.986332 -21.796127 1.974129 -23.389093 0.040111 -13.095290 56.709059 -1.044141 -8.777598 1.292335 -0.098970 -0.017800 0.047140 -2.741515 -3.939653 -8.976148 15.751390 -5.363160 14.775828 -9.567447 -2.973797 -5.459502 11.353477 -5.109492 -13.359322 -11.282512 6.554717 37.585188 -4.122250 6.140960 -2.216280 -17.153456 -3.448117 5.295189 -43.172077 16.464803 -7.092435 -8.393530 -0.010516 -1.147956 -3.763690 2.823820 0.291450 -0.021170 0.041140 0.022830 -5.063013 11.961987 6.852596 -23.926435 -9.508933 -3.581419 -55.764333 19.599639 -7.214057 2.721947 -1.688853 -0.089430 0.016850 -0.024170 -0.153320 
-0.160460 15.772870 -1.176980 -3.604255 -11.768337 -10.539494 -15.569110 13.351025 4.280198 33.853434 0.630678 -18.171697 -7.131380 22.330613 55.515468 1.522195 12.294895 0.296229 0.084300 -0.101760 0.166140 18.040251 -9.730410 2.168001 -22.972227 2.674170 -24.836327 1.527166 -14.130567 57.474291 -1.083995 -9.068202 1.195855 -0.084220 -0.000380 0.049880 -2.669903 -3.962017 -9.018681 15.519982 -5.391975 16.001626 -5.561257 -2.857725 -5.536664 10.062681 -5.433723 -12.421430 -11.189342 6.997469 35.792887 -4.430290 6.764660 -2.846890 -14.872977 -0.051434 4.404911 -44.330562 19.508904 -9.097458 -7.525165 -0.512868 -1.248862 -3.830293 2.784784 0.279140 -0.003620 0.024560 0.025270 -4.729960 8.621561 6.204878 -17.772713 -8.171291 -4.151657 -59.288048 24.924709 -10.599592 2.602645 -1.686323 -0.098340 0.022040 -0.018680 -0.154570 
-0.115860 15.716110 -1.224070 -3.785639 -12.295944 -9.780517 -15.616185 13.217613 4.250924 33.224946 0.858695 -20.187804 -5.515006 22.187533 57.759845 1.555636 12.466293 0.243858 0.085000 -0.098870 0.175750 18.041994 -9.530208 2.365543 -24.009505 3.279760 -26.423306 2.877079 -15.005931 57.980535 -1.119250 -9.304689 1.111129 -0.081360 0.001650 0.065690 -2.613109 -3.912461 -9.089175 14.696860 -5.479997 17.506221 -2.023559 -2.751469 -5.359031 8.759056 -5.004816 -11.791655 -9.856844 7.182743 35.022270 -5.201910 7.720020 -3.005820 -12.671407 2.330254 4.068083 -44.173486 22.624239 -10.841398 -7.357125 -1.942656 -1.351666 -3.869838 2.763115 0.262110 0.014940 0.021140 0.020990 -4.362242 5.813116 5.586102 -11.046065 -5.617827 -5.023727 -62.316450 30.366743 -14.466192 2.493651 -1.658415 -0.091950 0.006810 -0.020130 -0.158220 
-0.075230 15.684730 -1.281410 -4.402665 -12.680200 -9.226821 -15.629871 13.115067 4.173687 32.942877 1.208235 -21.288191 -4.076953 21.621526 58.500217 1.511486 12.437798 0.243334 0.076000 -0.108490 0.194730 18.053429 -9.468140 2.518509 -24.057164 3.865773 -27.387380 4.010323 -15.384963 57.782637 -1.114520 -9.388583 1.075740 -0.073300 0.008920 0.083310 -2.609803 -3.667977 -9.110764 14.023778 -5.096325 18.665263 1.277170 -2.228894 -4.576141 7.554344 -3.394700 -10.924846 -6.453432 6.657342 35.414740 -6.648170 8.787260 -2.461720 -11.375465 4.014647 3.778396 -42.321232 24.705926 -11.698654 -7.347266 -4.549700 -1.339013 -3.906842 2.747632 0.238970 0.055830 0.008970 0.006590 -3.330903 2.740946 4.608899 -3.693969 -2.601142 -5.720229 -64.818991 37.125873 -19.130595 2.352999 -1.570780 -0.099130 -0.005630 -0.014760 -0.174540 
-0.025230 15.681850 -1.341200 -4.679208 -12.128108 -8.913343 -15.605380 13.087250 4.062000 31.843975 1.218970 -22.361551 -2.457544 20.584734 59.097423 1.446967 12.309007 0.265143 0.053650 -0.139160 0.212060 18.068571 -9.552968 2.602222 -24.139132 4.091273 -27.790815 4.316898 -15.276080 57.367696 -1.081173 -9.352143 1.068521 -0.082120 0.008350 0.101070 -2.657037 -3.379750 -9.084587 13.317048 -4.760969 19.569725 3.443860 -1.856202 -3.871083 6.622715 -1.533065 -10.322443 -2.743803 6.092993 36.719000 -7.880330 9.867600 -1.338030 -10.175818 5.016462 3.695187 -40.074295 25.588652 -11.777571 -5.928591 -7.833232 -1.082252 -3.927081 2.759763 0.222160 0.089470 -0.001140 -0.020180 -2.676816 0.183264 3.750712 4.891347 0.346067 -6.493267 -65.342227 45.480761 -23.860062 2.170787 -1.387259 -0.104430 -0.027310 0.000630 -0.194910 
0.018430 15.690960 -1.408710 -4.709282 -11.074651 -9.073764 -15.565598 13.118502 3.953928 30.679756 1.126110 -22.972335 -1.478735 19.561607 58.862059 1.358799 12.077863 0.307204 0.073640 -0.119390 0.239020 18.089823 -9.649022 2.624647 -24.352967 4.154881 -27.629441 4.542180 -15.066097 56.693845 -1.062481 -9.242825 1.082279 -0.067730 -0.009980 0.111700 -2.740222 -3.244746 -9.016874 12.822177 -4.629994 20.719018 4.871355 -1.890568 -2.485039 5.498587 -0.757321 -9.982973 -1.189125 6.495173 38.513589 -7.898740 10.749390 -1.271300 -9.130396 4.633625 4.176251 -36.820621 25.278102 -10.957104 -5.878373 -10.009727 -0.877222 -3.888178 2.812514 0.235480 0.087210 0.016180 -0.027950 -1.337431 -0.426603 2.744868 11.645561 2.563982 -7.832018 -62.414450 55.067323 -27.145947 1.919498 -1.087002 -0.100800 -0.034750 -0.003000 -0.208700 
0.054140 15.742530 -1.473180 -4.327652 -9.445331 -9.485682 -15.512366 13.207786 3.847336 29.141537 0.859702 -23.276718 -0.847818 18.410051 57.943791 1.248277 11.727886 0.380934 0.079230 -0.118420 0.264940 18.093719 -9.895115 2.546230 -24.297555 3.939831 -26.723310 3.977697 -14.103767 55.105969 -0.983636 -8.864791 1.182593 -0.071440 -0.042470 0.110990 -2.810071 -3.030843 -8.905509 11.900515 -3.910244 21.523034 5.917797 -1.677663 -0.647503 4.363933 0.450564 -10.218430 0.951362 5.808633 41.285845 -7.772660 10.878370 -1.015530 -8.412319 2.585456 5.061280 -32.883508 23.564091 -9.446867 -5.715900 -11.644019 -0.594535 -3.831616 2.857805 0.262630 0.069440 0.040300 -0.047820 0.340489 0.302152 2.413350 19.746732 2.810414 -10.506773 -55.031967 63.805240 -27.661182 1.714292 -0.833152 -0.098380 -0.039430 -0.000420 -0.226590 
